#!OML:ASF H:\Terrain\Patient Classification 1\Terrain2\Thursday\justin.ASF
:FULLY-SPECIFIED
:DEGREES
2018
root 30.8219 18.1745 10.7404 833.062 -80.8705 247.338
lowerback 12.1625 0.882039 8.15076
upperback 3.5127 2.04008 4.56996
thorax -2.98643 0.864297 -0.0828993
lowerneck -16.4422 -2.03602 -9.28266
upperneck 31.8873 -2.39742 4.45304
head 13.7245 -1.84912 2.92868
rclavicle -5.1684e-015 6.36111e-015
rhumerus -31.7536 -9.28776 -79.4364
rradius 25.154
rwrist -9.08048
rhand -20.6575 11.6748
rfingers 7.12502
rthumb 5.70505 -18.2284
lclavicle -5.1684e-015 6.36111e-015
lhumerus -32.5162 4.53885 85.9366
lradius 39.2232
lwrist 1.1451
lhand -17.2277 21.0754
lfingers 7.12502
lthumb 9.01563 50.8627
rfemur 9.78539 -3.29903 34.5577
rtibia 3.18055e-015
rfoot -6.16236 0.533362
rtoes 15.1828
lfemur -66.0226 18.7858 -8.2231
ltibia 119.579
lfoot -19.2531 -15.6241
ltoes -3.87039
2019
root 30.7852 18.177 10.7467 834.348 -80.8353 245.809
lowerback 12.4767 1.04487 8.18716
upperback 3.61961 2.27927 4.53309
thorax -3.02784 0.980094 -0.180413
lowerneck -16.3556 -2.12791 -9.09811
upperneck 31.8226 -2.52721 4.25046
head 13.6841 -1.90765 2.79236
rclavicle -1.03368e-014 2.14687e-014
rhumerus -31.6792 -8.81906 -79.4737
rradius 25.6814
rwrist -10.0988
rhand -20.8404 11.4486
rfingers 7.12502
rthumb 5.52848 -18.4593
lclavicle -1.03368e-014 2.14687e-014
lhumerus -32.6168 4.99763 85.9895
lradius 38.7908
lwrist 0.446386
lhand -17.1895 21.5807
lfingers 7.12502
lthumb 9.05245 51.3664
rfemur 10.2265 -3.14697 34.4204
rtibia -1.59028e-015
rfoot -6.34204 0.515534
rtoes 16.3185
lfemur -67.8976 19.5198 -8.66936
ltibia 121.273
lfoot -19.6189 -16.7051
ltoes -2.95581
2020
root 30.7415 18.1772 10.7529 835.75 -80.665 244.029
lowerback 12.8569 1.13476 8.30001
upperback 3.79175 2.42819 4.51072
thorax -3.03723 1.05066 -0.29383
lowerneck -16.3027 -2.14183 -8.91829
upperneck 31.7732 -2.53223 4.02962
head 13.646 -1.91607 2.67059
rclavicle 4.37326e-015 -4.53229e-014
rhumerus -31.4796 -8.34977 -79.5693
rradius 26.1012
rwrist -10.5927
rhand -21.2134 10.8788
rfingers 7.12502
rthumb 5.16834 -19.0382
lclavicle 4.37326e-015 -4.53229e-014
lhumerus -32.793 5.52139 85.9275
lradius 38.4217
lwrist -0.251578
lhand -17.7133 22.12
lfingers 7.12502
lthumb 8.54707 51.927
rfemur 10.796 -2.93988 34.4093
rtibia -3.02153e-014
rfoot -6.44815 0.445161
rtoes 16.0887
lfemur -69.6192 20.4174 -8.98973
ltibia 122.806
lfoot -19.8921 -17.6503
ltoes -2.08874
2021
root 30.701 18.1499 10.7594 837.423 -80.4581 241.946
lowerback 13.3255 1.1541 8.25229
upperback 3.95694 2.47454 4.59879
thorax -3.12038 1.06576 -0.19041
lowerneck -16.3704 -2.05385 -9.14261
upperneck 31.8585 -2.3292 4.02538
head 13.6854 -1.85903 2.74235
rclavicle -1.2921e-014 -8.11041e-014
rhumerus -31.1936 -8.15933 -79.4396
rradius 26.3199
rwrist -10.2618
rhand -21.2908 10.7169
rfingers 7.12502
rthumb 5.09358 -19.2019
lclavicle -1.2921e-014 -8.11041e-014
lhumerus -33.0538 6.12322 85.8907
lradius 38.0133
lwrist -0.491843
lhand -17.8489 22.0536
lfingers 7.12502
lthumb 8.41611 51.866
rfemur 11.3938 -2.67711 34.4162
rtibia 3.18055e-015
rfoot -6.44417 0.383982
rtoes 15.5438
lfemur -71.5669 21.3106 -9.32156
ltibia 124.339
lfoot -20.1674 -18.2713
ltoes -2.43585
2022
root 30.6614 18.1554 10.7624 839.326 -80.2027 239.784
lowerback 13.7021 1.235 8.36976
upperback 4.05517 2.62131 4.60462
thorax -3.20563 1.13153 -0.279074
lowerneck -16.3901 -1.99399 -9.36089
upperneck 31.9125 -2.20738 4.12624
head 13.7075 -1.82151 2.84187
rclavicle -2.98177e-015 -1.59028e-015
rhumerus -30.998 -7.99966 -79.3957
rradius 26.6073
rwrist -10.3851
rhand -20.9401 10.8306
rfingers 7.12502
rthumb 5.43218 -19.0798
lclavicle -2.98177e-015 -1.59028e-015
lhumerus -33.2113 6.64657 85.7993
lradius 37.4531
lwrist -0.573003
lhand -17.1333 21.4674
lfingers 7.12502
lthumb 9.10669 51.2508
rfemur 11.848 -2.34095 34.491
rtibia -4.77083e-015
rfoot -6.52163 0.270999
rtoes 14.2421
lfemur -73.28 22.1805 -9.75808
ltibia 125.312
lfoot -20.4321 -18.6198
ltoes -3.33013
2023
root 30.6217 18.1495 10.7642 839.844 -79.991 239.113
lowerback 13.9447 1.27462 8.67035
upperback 4.10421 2.73021 4.48309
thorax -3.25535 1.18246 -0.595112
lowerneck -16.3193 -2.00615 -9.20855
upperneck 31.9399 -2.30721 4.18472
head 13.7094 -1.84103 2.82307
rclavicle 1.41137e-014 -2.78299e-014
rhumerus -30.9162 -7.37643 -79.8051
rradius 27.0786
rwrist -11.465
rhand -20.3967 10.9268
rfingers 7.12502
rthumb 5.95685 -18.9695
lclavicle 1.41137e-014 -2.78299e-014
lhumerus -33.3467 6.23227 85.7045
lradius 36.9379
lwrist -0.26801
lhand -16.8043 21.3365
lfingers 7.12502
lthumb 9.42416 51.1058
rfemur 12.186 -2.2161 34.6707
rtibia -9.70069e-014
rfoot -6.70536 0.0411338
rtoes 12.4187
lfemur -75.0812 22.7092 -10.348
ltibia 125.999
lfoot -20.9474 -18.249
ltoes -6.88221
2024
root 30.5749 18.1467 10.7753 841.763 -80.2994 236.987
lowerback 14.1517 1.30703 8.45344
upperback 4.20112 2.75387 4.22647
thorax -3.26221 1.19948 -0.753852
lowerneck -16.3981 -2.03879 -9.1612
upperneck 32.1062 -2.40428 4.26696
head 13.8072 -1.8724 2.83501
rclavicle -1.09332e-014 1.82882e-014
rhumerus -30.7326 -7.1556 -80.0506
rradius 27.41
rwrist -11.708
rhand -20.1019 11.1119
rfingers 7.12502
rthumb 6.2414 -18.7762
lclavicle -1.09332e-014 1.82882e-014
lhumerus -33.5244 5.59393 85.7034
lradius 36.518
lwrist 0.17623
lhand -17.3011 21.8771
lfingers 7.12502
lthumb 8.9448 51.6675
rfemur 12.5664 -2.12789 34.145
rtibia 4.77083e-014
rfoot -6.8743 -0.0716721
rtoes 11.2048
lfemur -76.7024 22.6705 -11.4911
ltibia 126.5
lfoot -21.265 -17.8038
ltoes -8.66716
2025
root 30.5245 18.1544 10.7917 845.885 -80.4224 232.541
lowerback 14.4676 1.4858 8.22733
upperback 4.36576 2.96835 3.99399
thorax -3.24331 1.3095 -0.914536
lowerneck -16.5182 -2.09902 -9.45473
upperneck 32.2512 -2.47181 4.49169
head 13.9116 -1.91111 2.96906
rclavicle -6.16232e-015 -3.97569e-015
rhumerus -30.4569 -7.11543 -80.041
rradius 27.6833
rwrist -11.4754
rhand -20.1628 11.0226
rfingers 7.12502
rthumb 6.18264 -18.8672
lclavicle -6.16232e-015 -3.97569e-015
lhumerus -33.5807 5.6164 85.7168
lradius 35.9405
lwrist 0.371134
lhand -18.0332 22.3493
lfingers 7.12502
lthumb 8.23829 52.1686
rfemur 13.0925 -1.66654 33.5056
rtibia 2.06736e-014
rfoot -6.88318 -0.040734
rtoes 10.6075
lfemur -78.1392 22.9819 -12.4932
ltibia 126.887
lfoot -20.8558 -18.0964
ltoes -5.60776
2026
root 30.4765 18.1415 10.7853 846.082 -79.5 231.874
lowerback 14.9822 1.63428 8.87074
upperback 4.55924 3.27469 4.17091
thorax -3.25958 1.44796 -1.14509
lowerneck -16.408 -2.11774 -9.55372
upperneck 32.1405 -2.46135 4.46086
head 13.84 -1.91951 2.9733
rclavicle 2.32578e-014 -1.90833e-014
rhumerus -30.2792 -6.34934 -80.144
rradius 28.1785
rwrist -12.0262
rhand -20.3927 10.9831
rfingers 7.12502
rthumb 5.96064 -18.9131
lclavicle 2.32578e-014 -1.90833e-014
lhumerus -33.6078 6.07328 85.6653
lradius 35.2898
lwrist 0.408661
lhand -18.4396 22.414
lfingers 7.12502
lthumb 7.84605 52.2484
rfemur 13.8464 -1.20259 34.2546
rtibia -7.63333e-014
rfoot -6.82244 -0.0301078
rtoes 9.8489
lfemur -79.5651 24.1738 -12.011
ltibia 127.182
lfoot -20.3296 -18.9083
ltoes -4.66066
2027
root 30.4272 18.1125 10.7707 844.22 -78.3319 233.237
lowerback 15.5103 1.69013 9.84327
upperback 4.7533 3.51082 4.46417
thorax -3.2648 1.54713 -1.42239
lowerneck -16.2207 -2.12319 -9.43907
upperneck 31.9546 -2.45575 4.2865
head 13.7136 -1.92135 2.88012
rclavicle 9.93923e-016 -1.66979e-014
rhumerus -30.0866 -5.46721 -80.3852
rradius 28.607
rwrist -13.0343
rhand -20.8284 11.2218
rfingers 7.12502
rthumb 5.54007 -18.6857
lclavicle 9.93923e-016 -1.66979e-014
lhumerus -33.7266 6.33205 85.5626
lradius 34.7689
lwrist 0.438847
lhand -18.4613 22.4515
lfingers 7.12502
lthumb 7.82512 52.2867
rfemur 14.6641 -0.9545 35.5172
rtibia -2.22639e-014
rfoot -6.95203 -0.184539
rtoes 8.70117
lfemur -80.8516 25.3425 -11.0162
ltibia 127.26
lfoot -20.333 -19.4661
ltoes -8.76429
2028
root 30.3774 18.107 10.7661 845.108 -77.8998 232.11
lowerback 15.7566 1.72251 9.99285
upperback 4.85442 3.58615 4.48089
thorax -3.27099 1.58006 -1.50602
lowerneck -16.0704 -2.03442 -9.41719
upperneck 31.9212 -2.34045 4.24944
head 13.6546 -1.87627 2.87932
rclavicle 3.57812e-014 3.18055e-015
rhumerus -29.8325 -4.77588 -80.6904
rradius 28.8387
rwrist -13.4297
rhand -20.9696 11.402
rfingers 7.12502
rthumb 5.40372 -18.5091
lclavicle 3.57812e-014 3.18055e-015
lhumerus -33.9395 6.73697 85.2766
lradius 34.2457
lwrist 0.45001
lhand -18.5689 22.5651
lfingers 7.12502
lthumb 7.72127 52.4042
rfemur 15.1478 -0.627362 35.7689
rtibia -2.54444e-014
rfoot -7.08988 -0.256152
rtoes 8.56444
lfemur -82.076 25.6656 -11.1666
ltibia 126.898
lfoot -20.1426 -19.3696
ltoes -11.4013
2029
root 30.3273 18.1189 10.786 847.926 -78.2589 229.295
lowerback 15.7635 1.67813 9.53295
upperback 4.84619 3.46355 4.27412
thorax -3.31529 1.52474 -1.45284
lowerneck -15.9645 -1.86685 -9.6596
upperneck 32.055 -2.08542 4.35534
head 13.6711 -1.79169 3.00752
rclavicle -9.93923e-015 -7.95139e-015
rhumerus -29.5744 -4.47217 -80.7358
rradius 28.9858
rwrist -12.9144
rhand -20.6923 11.4662
rfingers 7.12502
rthumb 5.67148 -18.4379
lclavicle -9.93923e-015 -7.95139e-015
lhumerus -34.1789 7.67053 84.9706
lradius 33.6561
lwrist 0.186216
lhand -18.8445 23.1331
lfingers 7.12502
lthumb 7.4552 52.9817
rfemur 15.3279 -0.364206 34.9842
rtibia -2.22639e-014
rfoot -7.11405 -0.138592
rtoes 8.60566
lfemur -83.2148 24.7205 -12.3356
ltibia 126.168
lfoot -18.9786 -19.2387
ltoes -8.58875
2030
root 30.2751 18.1182 10.797 850.174 -78.4317 226.908
lowerback 15.8902 1.75925 9.18564
upperback 4.95753 3.51694 4.18162
thorax -3.27786 1.55498 -1.37127
lowerneck -16.1442 -1.82423 -9.93447
upperneck 32.2663 -1.96611 4.46852
head 13.7975 -1.76537 3.12536
rclavicle 1.19271e-014 1.74931e-014
rhumerus -29.1628 -4.46057 -80.5744
rradius 29.1351
rwrist -12.5904
rhand -20.3062 11.5232
rfingers 7.12502
rthumb 6.04422 -18.3706
lclavicle 1.19271e-014 1.74931e-014
lhumerus -34.163 8.56589 84.8633
lradius 33.0355
lwrist -0.435972
lhand -18.7549 23.9797
lfingers 7.12502
lthumb 7.54172 53.8253
rfemur 15.6383 -0.14273 34.4683
rtibia -1.43125e-014
rfoot -7.20888 -0.182789
rtoes 7.41125
lfemur -84.0762 23.9156 -13.0655
ltibia 125.252
lfoot -18.0618 -19.4749
ltoes -8.10526
2031
root 30.2239 18.1157 10.8037 852.093 -78.5877 224.75
lowerback 16.1064 1.92736 8.94813
upperback 5.11517 3.70244 4.03043
thorax -3.21575 1.65138 -1.43687
lowerneck -16.2532 -1.91365 -9.94621
upperneck 32.3506 -2.09673 4.50883
head 13.8718 -1.81839 3.12482
rclavicle 1.86858e-014 1.19271e-014
rhumerus -28.8853 -4.29956 -80.5707
rradius 29.4952
rwrist -12.6996
rhand -20.2047 11.4804
rfingers 7.12502
rthumb 6.14216 -18.4105
lclavicle 1.86858e-014 1.19271e-014
lhumerus -33.9574 9.04552 84.7175
lradius 32.2599
lwrist -1.20315
lhand -18.1965 24.1507
lfingers 7.12502
lthumb 8.08069 53.9762
rfemur 16.0243 0.00792958 34.0071
rtibia 9.54166e-015
rfoot -7.35493 -0.286296
rtoes 7.05486
lfemur -84.5622 23.0586 -13.571
ltibia 124.086
lfoot -17.5264 -19.7234
ltoes -10.0376
